<svg width="1200" height="720" viewBox="0 0 1200 720" fill="none" xmlns="http://www.w3.org/2000/svg">
  <rect width="1200" height="720" rx="36" fill="#081223"/>
  <circle cx="182" cy="120" r="140" fill="#00EAFF" fill-opacity="0.18"/>
  <circle cx="1028" cy="590" r="180" fill="#14B8A6" fill-opacity="0.14"/>
  <rect x="64" y="64" width="1072" height="592" rx="28" fill="#0F172A" stroke="#243047"/>
  <rect x="104" y="110" width="260" height="456" rx="20" fill="#0B1222"/>
  <rect x="392" y="110" width="704" height="210" rx="20" fill="#0B1222"/>
  <rect x="392" y="348" width="338" height="218" rx="20" fill="#0B1222"/>
  <rect x="758" y="348" width="338" height="218" rx="20" fill="#0B1222"/>
  <path d="M142 510C208 442 250 420 326 402" stroke="#14B8A6" stroke-width="8" stroke-linecap="round"/>
  <path d="M198 492L216 474L240 494L286 448" stroke="#00EAFF" stroke-width="10" stroke-linecap="round" stroke-linejoin="round"/>
  <circle cx="520" cy="210" r="64" fill="#00EAFF" fill-opacity="0.12"/>
  <circle cx="520" cy="210" r="28" fill="#00EAFF"/>
  <rect x="602" y="164" width="368" height="18" rx="9" fill="#243047"/>
  <rect x="602" y="202" width="290" height="16" rx="8" fill="#1D8E9E"/>
  <rect x="602" y="236" width="242" height="16" rx="8" fill="#243047"/>
  <rect x="428" y="386" width="274" height="18" rx="9" fill="#243047"/>
  <rect x="428" y="426" width="218" height="16" rx="8" fill="#00EAFF" fill-opacity="0.72"/>
  <rect x="428" y="462" width="250" height="16" rx="8" fill="#243047"/>
  <rect x="794" y="386" width="190" height="18" rx="9" fill="#243047"/>
  <rect x="794" y="426" width="222" height="84" rx="16" fill="#111E35" stroke="#00EAFF" stroke-opacity="0.35"/>
  <text x="106" y="698" fill="#E2E8F0" font-size="44" font-family="Arial, sans-serif" font-weight="700">GeoWatch</text>
</svg>
