<svg width="1200" height="720" viewBox="0 0 1200 720" fill="none" xmlns="http://www.w3.org/2000/svg">
  <rect width="1200" height="720" rx="36" fill="#06101F"/>
  <circle cx="236" cy="140" r="150" fill="#00EAFF" fill-opacity="0.14"/>
  <circle cx="990" cy="596" r="180" fill="#14B8A6" fill-opacity="0.16"/>
  <rect x="74" y="64" width="1052" height="592" rx="30" fill="#0F172A" stroke="#243047"/>
  <rect x="118" y="110" width="356" height="500" rx="28" fill="#091221"/>
  <rect x="510" y="110" width="572" height="154" rx="26" fill="#091221"/>
  <rect x="510" y="292" width="572" height="318" rx="26" fill="#091221"/>
  <rect x="158" y="148" width="220" height="22" rx="11" fill="#243047"/>
  <rect x="158" y="198" width="162" height="18" rx="9" fill="#14B8A6"/>
  <circle cx="296" cy="384" r="96" fill="#0D1830" stroke="#00EAFF" stroke-opacity="0.35" stroke-width="4"/>
  <path d="M258 392C282 348 334 340 362 378" stroke="#00EAFF" stroke-width="12" stroke-linecap="round"/>
  <path d="M244 448C284 476 326 476 364 448" stroke="#14B8A6" stroke-width="12" stroke-linecap="round"/>
  <rect x="550" y="152" width="226" height="18" rx="9" fill="#243047"/>
  <rect x="550" y="192" width="296" height="16" rx="8" fill="#00EAFF" fill-opacity="0.72"/>
  <rect x="550" y="334" width="492" height="26" rx="13" fill="#243047"/>
  <rect x="550" y="384" width="420" height="20" rx="10" fill="#243047"/>
  <rect x="550" y="428" width="454" height="20" rx="10" fill="#243047"/>
  <rect x="550" y="482" width="218" height="50" rx="16" fill="url(#paint0_linear_6_2)"/>
  <text x="106" y="698" fill="#E2E8F0" font-size="44" font-family="Arial, sans-serif" font-weight="700">MindMeal</text>
  <defs>
    <linearGradient id="paint0_linear_6_2" x1="550" y1="507" x2="768" y2="507" gradientUnits="userSpaceOnUse">
      <stop stop-color="#00EAFF"/>
      <stop offset="1" stop-color="#14B8A6"/>
    </linearGradient>
  </defs>
</svg>
